<svg width="829" height="188" viewBox="0 0 829 188" fill="none" xmlns="http://www.w3.org/2000/svg">
<g clip-path="url(#clip0_333_8482)">
<path d="M475.788 75.2608C483.958 86.8715 481.985 98.8523 470.313 108.158C477.47 111.355 481.482 116.724 482.469 124.43C484.213 138.048 476.149 149.074 462.182 151.005C455.458 151.934 448.578 151.853 441.764 151.987C433.961 152.14 426.152 152.022 418.07 152.022C418.07 123.609 418.07 95.5174 418.07 67.8292C432.499 67.8292 446.823 67.225 461.047 68.1576C466.011 68.4831 470.726 72.5996 475.788 75.2608ZM451.313 137.17C452.966 137.074 454.658 137.17 456.265 136.848C461.829 135.733 465.297 131.379 465.136 125.929C464.985 120.803 461.641 116.651 456.225 116.281C449.35 115.811 442.418 116.167 435.297 116.167C435.297 123.266 435.297 129.966 435.297 137.17C440.495 137.17 445.428 137.17 451.313 137.17ZM456.346 82.6465C449.442 82.3241 442.539 82.0018 435.424 81.6695C435.424 88.8658 435.424 95.2497 435.424 101.991C441.262 101.991 446.733 102.044 452.201 101.975C457.034 101.914 461.185 100.479 462.719 95.3212C464.332 89.8994 462.552 86.2049 456.346 82.6465Z" fill="#333545"/>
<path d="M72.1992 74.3969C71.633 70.961 69.4642 72.2764 67.7093 73.0038C60.5666 75.9647 60.5813 76.0001 57.2388 68.3584C65.0589 65.4734 70.9104 60.2856 75.1272 53.3185C74.8302 52.922 74.5332 52.5256 74.2362 52.1291C71.545 53.986 68.8538 55.8428 66.145 57.7117C64.6282 53.8732 68.9293 49.3647 73.4039 49.6327C80.7578 50.0732 88.0317 49.802 94.2107 45.5753C93.8589 41.8076 93.5201 38.1798 93.078 33.4454C95.6263 35.368 97.2646 36.604 98.6634 37.6593C98.418 39.4631 98.1744 40.8922 98.1111 42.3293C98.1053 42.4597 99.7516 42.8678 99.7992 42.7644C100.418 41.4192 100.573 39.7423 101.47 38.6719C102.682 37.2234 104.277 35.8395 105.997 35.1371C108.045 34.3013 110.399 34.2173 112.663 33.7997C110.52 26.1925 113.634 21.987 121.138 19.8283C125.858 18.4703 130.068 16.4803 135.393 17.288C137.397 17.5919 140.049 13.6222 142.799 11.2629C143.969 11.2629 146.413 11.7785 148.536 11.1713C156.557 8.87665 164.497 6.28845 172.416 3.65271C174.89 2.82895 177.2 1.50894 180.762 -0.123047C180.063 4.90628 179.576 8.40854 179.099 11.8395C185.052 14.9828 185.025 15.5191 180.845 20.8294C179.896 22.0349 180.119 24.2584 180.037 26.0242C179.942 28.0525 180.109 30.0929 180.163 32.1281C178.415 31.7683 176.667 31.4086 173.877 30.8345C172.79 35.4668 171.565 40.6883 170.67 45.9554C170.829 46.7893 170.544 48.2741 170.505 48.2676C165.359 47.4189 165.007 52.1888 163.246 54.8321C161.01 58.1896 161.061 62.9316 155.949 64.4741C154.019 65.0564 152.766 67.746 151.099 69.3659C148.316 72.0699 148.11 74.1102 152.349 75.3147C152.962 75.489 153.499 75.9332 154.072 76.2524C153.898 76.712 153.725 77.1715 153.552 77.6311C151.658 77.525 149.764 77.4189 147.103 77.27C146.238 80.6607 145.337 84.1902 144.22 88.5701C146.355 88.1213 147.329 87.9166 149.494 87.4615C148.633 92.9667 147.84 98.0367 147.146 102.47C144.351 104.077 141.457 104.834 140.077 106.706C136.301 111.827 133.162 117.417 129.77 122.822C130.194 123.168 130.618 123.514 131.043 123.86C134.012 121.043 136.981 118.227 139.951 115.411C140.348 115.528 140.745 115.645 141.142 115.762C140.528 117.448 140.227 119.356 139.226 120.767C137.732 122.876 135.842 124.739 133.938 126.511C132.117 128.207 130.267 130.581 127.674 127.096C127.235 126.506 124.95 126.684 123.918 127.244C119.542 129.619 118.154 129.003 116.985 123.978C116.671 122.631 115.852 121.402 115.062 119.64C116.874 116.746 119.518 114.598 120.688 111.827C121.519 109.862 120.359 107.056 120.088 104.625C117.822 105.025 115.442 105.127 113.334 105.937C112.081 106.419 111.261 108.021 110.24 109.112C104.68 115.053 99.1039 120.978 93.563 126.936C90.787 129.921 88.2225 130.143 85.1629 127.092C78.3427 120.291 71.4308 113.571 64.3203 107.077C61.2474 104.27 61.3015 101.914 63.9117 99.0812C65.1465 97.7415 66.2478 96.2798 67.4545 94.9132C72.7319 88.9367 78.0386 82.986 83.3063 77.001C84.9935 75.0842 86.085 72.6684 83.4531 71.1023C81.8286 70.1356 79.1743 70.0007 77.316 70.5741C75.3997 71.1653 73.888 73.068 72.1992 74.3969ZM62.7426 72.0235C71.1702 69.083 79.4731 65.5294 88.7739 67.0702C89.4146 67.1764 90.4753 66.6358 90.8662 66.0689C94.8436 60.3009 98.7224 54.465 103.305 47.6411C99.738 48.2206 97.2828 48.4167 94.9384 49.0336C81.1681 52.6572 69.913 59.9406 61.7234 72.1261C61.8046 72.0716 61.8857 72.0171 62.7426 72.0235ZM155.687 11.117C113.987 26.7094 80.5192 79.761 80.4441 109.357C123.444 105.106 183.52 40.5076 175.941 5.49619C169.412 7.28116 162.911 9.0582 155.687 11.117ZM127.4 119.992C138.246 108.531 143.513 94.968 143.28 78.2315C136.05 84.3909 129.486 89.856 123.13 95.5526C122.303 96.2941 121.922 98.5023 122.391 99.5654C125.573 106.783 124.999 113.942 121.842 122.405C124.264 121.496 125.577 121.003 127.4 119.992ZM107.351 42.5659C107.867 42.8346 108.383 43.1033 108.899 43.372C109.122 42.8352 109.345 42.2984 109.568 41.7616C108.919 41.854 108.271 41.9464 107.351 42.5659Z" fill="#E7FAFA"/>
<path d="M354.211 103C354.211 91.0273 354.211 79.5544 354.211 67.6547C359.807 66.993 365.182 66.3575 371.03 65.666C371.03 82.2783 371.03 98.6554 371.03 116.665C373.314 114.031 374.641 112.527 375.939 110.998C377.338 109.349 378.716 107.681 380.093 106.013C391.341 92.3981 391.34 92.3976 410.048 93.3245C406.806 97.3729 403.884 101.063 400.917 104.717C397.562 108.849 394.334 113.103 390.725 117.003C388.681 119.212 388.904 120.834 390.497 123.023C395.779 130.281 400.951 137.618 406.152 144.934C407.575 146.935 408.954 148.966 411.058 152C404.378 152 398.676 152.115 392.987 151.89C392.019 151.852 390.909 150.504 390.201 149.519C384.088 141.02 378.053 132.466 371.285 122.929C371.285 133.111 371.285 142.239 371.285 151.699C365.456 151.699 360.214 151.699 354.212 151.699C354.212 135.657 354.212 119.579 354.211 103Z" fill="#333545"/>
<path d="M24.8366 135.027C31.9659 131.685 38.7103 128.297 45.717 125.588C48.1094 124.663 51.1606 125.441 53.9108 125.441C54.022 126.082 54.1332 126.724 54.2444 127.365C51.822 129.218 49.4757 131.183 46.9625 132.903C40.043 137.64 35.2773 143.947 34.7113 152.36C34.5387 154.925 36.8004 159.281 38.9015 159.991C42.0631 161.058 46.5495 160.604 49.6062 159.069C55.6733 156.024 60.7979 151.518 63.8154 145.02C64.3591 143.85 66.3216 143.338 67.6291 142.521C67.8867 143.976 68.7885 145.708 68.2996 146.84C64.4863 155.665 61.7931 165.451 56.053 172.844C49.0117 181.912 38.0207 186.108 26.2778 186.95C18.99 187.473 11.686 187.784 4.38587 188.115C0.854372 188.275 -0.30319 186.68 0.481295 183.114C3.53192 169.249 7.19739 155.618 15.9486 144.072C18.4115 140.823 21.6641 138.172 24.8366 135.027Z" fill="#FACA08"/>
<path d="M528.758 92.2581C543.693 96.1949 551.97 105.538 553.15 119.426C554.314 133.122 547.65 145.108 535.885 150.478C522.939 156.388 506.592 153.782 497.581 143.812C488.951 134.264 487.775 122.956 491.803 111.116C495.758 99.4914 504.692 93.6906 516.413 92.0384C520.31 91.4891 524.37 92.0934 528.758 92.2581ZM516.66 138.2C523.622 139.982 529.436 138.171 532.992 133.111C537.082 127.292 537.156 118.491 533.166 112.479C527.645 104.16 515.003 103.839 509.524 112.109C503.525 121.165 506.452 134.858 516.66 138.2Z" fill="#333545"/>
<path d="M559.615 125.664C558.821 109.834 565.523 98.9217 578.902 93.7607C592.412 88.5491 608.2 92.1916 616.412 103.036C624.306 113.461 625.521 125.052 619.647 136.794C613.886 148.311 603.868 153.53 591.228 153.502C573.477 153.463 561.235 142.68 559.615 125.664ZM601.772 110.788C596.044 105.74 589.986 104.722 584.437 107.875C578.324 111.349 575.387 118.434 576.75 126.421C577.932 133.348 583.086 138.327 589.727 138.958C596.875 139.637 602.711 135.862 605.025 128.791C607.062 122.565 606.375 116.653 601.772 110.788Z" fill="#333545"/>
<path d="M302.134 145.79C302.132 148.069 302.132 149.877 302.132 151.825C296.53 151.825 291.255 151.825 285.659 151.825C285.659 132.377 285.659 113.132 285.659 93.5128C290.733 93.5128 295.798 93.5128 301.28 93.5128C301.481 94.7741 301.722 96.2865 302.088 98.5758C308.64 91.9875 316.261 90.7064 324.497 91.8849C333.016 93.104 340.399 99.2275 340.84 107.659C341.601 122.21 341.051 136.83 341.051 151.708C335.937 151.708 330.683 151.708 324.833 151.708C324.833 141.807 324.848 131.888 324.821 121.968C324.816 119.811 324.876 117.62 324.539 115.503C323.667 110.025 320.354 106.839 315.465 106.469C309.673 106.031 304.528 109.192 303.174 114.481C302.443 117.338 302.239 120.383 302.184 123.35C302.049 130.671 302.137 137.996 302.134 145.79Z" fill="#333545"/>
<path d="M771.953 127.808C761.494 127.809 751.526 127.809 741.566 127.809C741.104 133.323 745.301 138.605 751.388 140.072C756.829 141.382 762.32 140.855 766.55 137.3C770.466 134.009 774.017 134.849 777.952 135.909C779.182 144.979 777.787 147.553 770.036 150.834C752.322 158.333 732.107 151.276 726.306 135.132C721.818 122.643 723.397 110.528 732.444 100.607C740.689 91.565 751.639 89.7684 763.215 92.9169C772.993 95.5765 778.518 102.662 780.696 112.219C781.789 117.014 781.839 122.046 782.449 127.808C778.628 127.808 775.536 127.808 771.953 127.808ZM741.514 112.527C741.35 113.599 741.186 114.67 741.003 115.865C749.479 115.865 757.569 115.865 765.66 115.865C765.577 109.749 763.637 106.815 758.608 104.919C752.177 102.493 746.379 104.882 741.514 112.527Z" fill="#333545"/>
<path d="M191.86 71.1401C191.597 68.3858 191.899 66.8232 194.89 66.9638C199.365 67.1741 203.857 67.0184 208.913 67.0184C208.913 90.095 208.913 112.978 208.913 136.352C221.207 136.352 232.942 136.352 245.037 136.352C245.037 141.738 245.037 146.636 245.037 151.755C227.413 151.755 209.857 151.755 191.866 151.755C191.866 124.862 191.866 98.2436 191.86 71.1401Z" fill="#333545"/>
<path d="M650.172 129.616C648.151 129.142 646.522 128.813 644.915 128.397C634.405 125.677 629.528 119.701 630.053 110.22C630.589 100.556 637.403 93.3588 647.402 91.9857C656.506 90.7352 664.831 92.7684 672.604 98.1394C670.844 101.895 669.118 105.578 667.336 109.381C663.747 108.071 660.549 106.74 657.246 105.763C655.378 105.21 653.094 104.571 651.436 105.176C649.381 105.925 647.277 107.643 646.24 109.52C645.848 110.229 648.053 113.272 649.642 113.987C652.93 115.464 656.602 116.081 660.11 117.075C669.906 119.851 674.578 125.13 674.704 133.541C674.84 142.688 669.356 149.536 659.775 152.204C651.448 154.523 643.266 153.723 635.316 150.708C628.842 148.252 628.246 146.821 630.263 140.329C630.833 138.491 631.832 136.786 632.744 134.78C636.841 136.319 640.458 138.027 644.263 138.999C647.4 139.801 650.854 140.32 653.986 139.822C655.775 139.537 658.234 137.103 658.46 135.384C658.638 134.027 656.017 132.089 654.346 130.786C653.391 130.042 651.85 130.051 650.172 129.616Z" fill="#333545"/>
<path d="M712.917 93.1766C715.212 93.1774 717.035 93.1774 719.215 93.1774C719.215 97.7519 719.215 102.159 719.215 107.113C714.152 107.113 709.244 107.113 704.006 107.113C704.006 115.78 703.861 123.911 704.059 132.035C704.18 136.988 707.121 139.417 712.277 139.202C714.396 139.114 716.496 138.584 719.185 138.165C719.185 142.572 719.185 146.921 719.185 152.173C714.777 152.595 710.018 153.66 705.34 153.378C693.531 152.668 687.649 146.297 687.324 134.408C687.124 127.088 687.287 119.757 687.287 112.431C687.287 110.813 687.287 109.196 687.287 107.125C683.377 107.125 679.961 107.125 676.292 107.125C676.292 102.419 676.292 98.1683 676.292 93.3643C679.8 93.3643 683.205 93.3643 687.137 93.3643C687.137 88.7578 687.137 84.6681 687.137 80.3219C692.897 79.1227 698.2 78.0185 703.888 76.834C703.888 82.1348 703.888 87.2284 703.888 93.1758C706.959 93.1758 709.703 93.1758 712.917 93.1766Z" fill="#333545"/>
<path d="M72.1129 74.6336C73.888 73.0667 75.3997 71.164 77.316 70.5728C79.1743 69.9994 81.8286 70.1342 83.4531 71.101C86.0849 72.6671 84.9935 75.0829 83.3063 76.9997C78.0386 82.9847 72.7319 88.9354 67.4545 94.9119C66.2478 96.2785 65.1464 97.7402 63.9117 99.0799C61.3015 101.912 61.2474 104.269 64.3203 107.076C71.4308 113.57 78.3426 120.29 85.1629 127.091C88.2225 130.142 90.7869 129.92 93.563 126.935C99.1039 120.977 104.68 115.051 110.24 109.111C111.261 108.019 112.081 106.418 113.334 105.936C115.442 105.125 117.822 105.024 120.088 104.624C120.359 107.054 121.519 109.86 120.688 111.826C119.518 114.597 116.874 116.745 114.698 119.466C109.882 124.702 105.228 129.632 100.574 134.562C93.4163 142.144 86.2461 142.52 78.5016 135.673C76.642 134.029 74.8875 132.266 72.6393 130.116C69.2746 126.862 66.3553 124.048 63.4359 121.235C60.3154 118.264 56.9782 115.486 54.1235 112.278C49.4288 107.004 49.4256 99.942 54.0172 94.6455C58.1441 89.8849 62.5263 85.3455 67.2256 80.2619C68.626 78.6202 69.5966 77.4252 70.5673 76.2303C71.0537 75.7774 71.5402 75.3245 72.1129 74.6336Z" fill="#464985"/>
<path d="M829.031 106.524C827.492 106.993 825.995 107.148 824.519 107.029C813.854 106.17 808.102 111.232 807.963 121.93C807.835 131.718 807.936 141.509 807.936 151.645C802.311 151.645 797.086 151.645 791.504 151.645C791.504 132.461 791.504 113.255 791.504 93.6012C796.522 93.6012 801.569 93.6012 806.776 93.6012C807.016 95.1227 807.266 96.7094 807.512 98.2682C810.976 96.343 814.023 94.0003 817.466 92.9172C820.984 91.8107 824.891 91.9403 829.084 91.4785C829.084 96.877 829.084 101.48 829.031 106.524Z" fill="#333545"/>
<path d="M260.13 151.991C258.342 151.976 257.033 151.976 255.366 151.976C255.366 132.463 255.366 113.228 255.366 93.5508C260.5 93.5508 265.75 93.5508 271.431 93.5508C271.431 112.645 271.431 132.001 271.431 152.006C267.824 152.006 264.216 152.006 260.13 151.991Z" fill="#333545"/>
<path d="M264.671 85.8853C259.384 85.8384 255.524 84.1107 253.717 79.1966C252.158 74.9577 253.317 71.1808 256.369 68.2255C259.451 65.2411 263.329 64.4226 267.463 66.0885C271.695 67.7939 273.446 71.3187 273.633 75.5487C273.849 80.4693 271.047 83.6005 264.671 85.8853Z" fill="#333545"/>
<path d="M63.1139 121.438C66.3553 124.049 69.2747 126.862 72.3652 129.832C68.3019 132.746 64.0953 135.546 59.8222 138.241C57.4301 139.75 54.9277 141.084 51.2441 143.205C52.3808 133.357 59.4518 128.488 63.1139 121.438Z" fill="#25D6D7"/>
<path d="M154.977 84.3555C154.901 86.3043 154.815 87.8593 154.728 89.4143C154.203 89.5178 153.678 89.6213 153.153 89.7248C152.522 87.4093 151.809 85.1097 151.353 82.7602C151.289 82.4326 152.489 81.8597 153.104 81.4004C153.725 82.2541 154.346 83.1079 154.977 84.3555Z" fill="#E7FAFA"/>
<path d="M142.919 6.17323C144.445 3.37666 146.505 3.25114 150.74 5.55583C148.557 9.34486 145.793 7.35014 142.919 6.17323Z" fill="#E7FAFA"/>
<path d="M158.574 3.00272C156.67 2.99545 155.164 2.99545 153.657 2.99545C153.694 2.34463 153.73 1.69379 153.767 1.04297C156.682 1.28671 159.598 1.53046 162.514 1.7742C162.465 2.33102 162.417 2.88785 162.368 3.4447C161.236 3.2998 160.104 3.15488 158.574 3.00272Z" fill="#E7FAFA"/>
<path d="M70.1604 76.1702C69.5967 77.4261 68.626 78.621 67.357 79.9573C66.6569 78.9439 66.255 77.7891 65.6704 76.1094C67.1416 76.1094 68.4475 76.1094 70.1604 76.1702Z" fill="#E7FAFA"/>
<path d="M171.136 45.9466C171.182 45.9286 171.091 45.9646 171.136 45.9466Z" fill="#E7FAFA"/>
<path d="M450.836 137.169C445.427 137.17 440.494 137.17 435.297 137.17C435.297 129.965 435.297 123.266 435.297 116.166C442.418 116.166 449.35 115.81 456.225 116.28C461.641 116.65 464.984 120.803 465.135 125.929C465.296 131.378 461.828 135.733 456.264 136.848C454.657 137.17 452.966 137.074 450.836 137.169Z" fill="#FEFEFE"/>
<path d="M456.73 82.7836C462.551 86.2053 464.331 89.8998 462.718 95.3216C461.184 100.479 457.033 101.914 452.201 101.975C446.732 102.044 441.261 101.991 435.423 101.991C435.423 95.2501 435.423 88.8662 435.423 81.6699C442.538 82.0022 449.441 82.3245 456.73 82.7836Z" fill="#FEFEFE"/>
<path d="M156.049 10.976C162.911 9.05811 169.412 7.28107 175.941 5.49609C183.52 40.5075 123.444 105.106 80.4443 109.357C80.5194 79.7609 113.987 26.7093 156.049 10.976Z" fill="#25D6D7"/>
<path d="M127.146 120.25C125.577 121.002 124.264 121.495 121.843 122.404C124.999 113.941 125.574 106.781 122.391 99.5644C121.923 98.5013 122.303 96.293 123.13 95.5515C129.487 89.8549 136.05 84.3898 143.28 78.2305C143.513 94.9669 138.246 108.53 127.146 120.25Z" fill="#25D6D7"/>
<path d="M62.0155 72.0066C69.913 59.9401 81.1681 52.6566 94.9384 49.0331C97.2828 48.4161 99.738 48.2201 103.305 47.6406C98.7224 54.4644 94.8436 60.3004 90.8662 66.0684C90.4753 66.6353 89.4146 67.1758 88.7739 67.0697C79.4731 65.5289 71.1702 69.0825 62.3659 72.0054C61.9892 71.9878 62.0155 72.0066 62.0155 72.0066Z" fill="#25D6D7"/>
<path d="M107.486 42.3025C108.271 41.9465 108.919 41.8541 109.568 41.7617C109.345 42.2985 109.122 42.8353 108.899 43.3721C108.383 43.1034 107.867 42.8347 107.486 42.3025Z" fill="#FEFEFE"/>
<path d="M61.9782 71.9746C61.8858 72.0163 61.8047 72.0708 61.8696 72.0658C62.0156 72.0063 61.9893 71.9874 61.9782 71.9746Z" fill="#25D6D7"/>
<path d="M516.281 138.09C506.453 134.857 503.525 121.165 509.525 112.109C515.004 103.839 527.646 104.16 533.166 112.479C537.156 118.491 537.082 127.292 532.993 133.11C529.437 138.17 523.623 139.982 516.281 138.09Z" fill="#FEFEFE"/>
<path d="M602.027 111.06C606.375 116.652 607.062 122.564 605.025 128.791C602.712 135.861 596.875 139.636 589.728 138.957C583.087 138.327 577.933 133.348 576.751 126.42C575.387 118.434 578.324 111.348 584.438 107.874C589.987 104.721 596.044 105.739 602.027 111.06Z" fill="#FEFEFE"/>
<path d="M741.695 113.171C746.379 105.883 752.177 103.493 758.608 105.919C763.637 107.816 765.577 110.75 765.66 116.865C757.569 116.865 749.478 116.865 741.003 116.865C741.186 115.67 741.35 114.599 741.695 113.171Z" fill="#E7FAFA"/>
</g>
<defs>
<clipPath id="clip0_333_8482">
<rect width="829" height="188" fill="white"/>
</clipPath>
</defs>
</svg>
