<svg width="40" height="40" viewBox="0 0 40 40" fill="none" xmlns="http://www.w3.org/2000/svg">
<g clip-path="url(#clip0_329_8159)">
<path d="M30.9678 0H9.03219C4.04385 0 0 4.06257 0 9.07401V30.926C0 35.9374 4.04385 40 9.03219 40H30.9678C35.9562 40 40 35.9374 40 30.926V9.07401C40 4.06257 35.9562 0 30.9678 0Z" fill="#0866FF"/>
<path fill-rule="evenodd" clip-rule="evenodd" d="M22.4227 39.9998H15.1682V26.1206H11.0439V19.9807H15.1682V17.335C15.1682 10.4961 18.2488 7.32617 24.932 7.32617C26.1989 7.32617 28.3854 7.57584 29.2797 7.82543V13.3913C28.8076 13.3414 27.9879 13.3165 26.9691 13.3165C23.6897 13.3165 22.4227 14.5645 22.4227 17.8092V19.9807H28.9554L27.8331 26.1206H22.4227V39.9998Z" fill="white"/>
</g>
<defs>
<clipPath id="clip0_329_8159">
<rect width="40" height="40" fill="white"/>
</clipPath>
</defs>
</svg>
