<svg width="40" height="40" viewBox="0 0 40 40" fill="none" xmlns="http://www.w3.org/2000/svg">
<g clip-path="url(#clip0_329_8162)">
<path fill-rule="evenodd" clip-rule="evenodd" d="M9.1316 0H30.9081C33.2846 0.00688544 35.5618 0.962818 37.2423 2.65896C38.9227 4.35511 39.8698 6.6536 39.8766 9.0523V30.8496C39.869 33.2477 38.9215 35.5454 37.2411 37.2408C35.5608 38.9363 33.2841 39.8917 30.9081 39.8986H9.1316C6.75566 39.8917 4.47893 38.9363 2.79857 37.2408C1.11822 35.5454 0.17076 33.2477 0.163086 30.8496V9.0523C0.169908 6.6536 1.11699 4.35511 2.79744 2.65896C4.47788 0.962818 6.7551 0.00688544 9.1316 0Z" fill="#0A66C2"/>
<path fill-rule="evenodd" clip-rule="evenodd" d="M16.0124 15.5046H21.0677V18.1209H21.1393C21.8457 16.852 23.5645 15.5046 26.1328 15.5046C31.4681 15.5046 32.4544 18.8404 32.4544 23.1801V32.3568H27.1842V24.2005C27.1842 22.3331 27.1452 19.9294 24.4434 19.9294C21.7415 19.9294 21.2793 21.9603 21.2793 24.0664V32.3732H16.0124V15.5046ZM13.0208 10.3962C13.0208 10.9409 12.8601 11.4733 12.5589 11.9261C12.2577 12.3789 11.8297 12.7319 11.3288 12.9403C10.828 13.1487 10.2769 13.2032 9.74523 13.097C9.21355 12.9907 8.72517 12.7285 8.34185 12.3434C7.95853 11.9583 7.69749 11.4676 7.59173 10.9334C7.48597 10.3993 7.54025 9.84562 7.7477 9.34246C7.95515 8.83929 8.30646 8.40923 8.75719 8.10665C9.20793 7.80408 9.73785 7.64258 10.2799 7.64258C11.0066 7.64344 11.7033 7.93384 12.2171 8.45006C12.7309 8.96629 13.02 9.66619 13.0208 10.3962ZM7.54557 15.5046H13.0208V32.3568H7.54557V15.5046Z" fill="white"/>
</g>
<defs>
<clipPath id="clip0_329_8162">
<rect width="40" height="40" fill="white"/>
</clipPath>
</defs>
</svg>
