<svg width="40" height="40" viewBox="0 0 40 40" fill="none" xmlns="http://www.w3.org/2000/svg">
<g clip-path="url(#clip0_329_8165)">
<path d="M0 20C0 28.5383 5.35156 35.8281 12.8836 38.6969C12.7 37.1352 12.5055 34.5602 12.925 32.7539C13.2867 31.2 15.2602 22.857 15.2602 22.857C15.2602 22.857 14.6648 21.6656 14.6648 19.9C14.6648 17.1336 16.2688 15.0664 18.2672 15.0664C19.9672 15.0664 20.7867 16.3422 20.7867 17.8703C20.7867 19.5789 19.6984 22.132 19.1367 24.5008C18.6687 26.482 20.132 28.0984 22.0852 28.0984C25.6234 28.0984 28.3453 24.3664 28.3453 18.9805C28.3453 14.2117 24.9187 10.8805 20.0266 10.8805C14.3641 10.8805 11.0391 15.1289 11.0391 19.5203C11.0391 21.232 11.6969 23.0656 12.5203 24.0641C12.6243 24.174 12.6822 24.3197 12.682 24.4711C12.682 24.5258 12.6742 24.5813 12.6594 24.6344C12.5078 25.2648 12.1703 26.6164 12.1063 26.8922C12.018 27.2555 11.818 27.3344 11.4391 27.1578C8.95312 26.0008 7.39922 22.3656 7.39922 19.4461C7.39922 13.1641 11.9617 7.39766 20.5523 7.39766C27.4594 7.39766 32.8281 12.3195 32.8281 18.8961C32.8281 25.7578 28.5023 31.2812 22.4961 31.2812C20.4773 31.2812 18.5828 30.2305 17.9328 28.9922C17.9328 28.9922 16.9344 32.7953 16.6922 33.7258C16.2227 35.5328 14.9187 37.8188 14.1109 39.1172C15.9734 39.6922 17.95 40 20 40C31.0453 40 40 31.0445 40 20C40 8.95547 31.0453 0 20 0C8.95469 0 0 8.95469 0 20Z" fill="#E60019"/>
</g>
<defs>
<clipPath id="clip0_329_8165">
<rect width="40" height="40" fill="white"/>
</clipPath>
</defs>
</svg>
