<svg width="40" height="40" viewBox="0 0 40 40" fill="none" xmlns="http://www.w3.org/2000/svg">
<g clip-path="url(#clip0_329_8167)">
<path d="M20 40C31.0457 40 40 31.0457 40 20C40 8.95431 31.0457 0 20 0C8.95431 0 0 8.95431 0 20C0 31.0457 8.95431 40 20 40Z" fill="#FF4500"/>
<path d="M31.2887 24.0091C33.8563 24.0091 35.9378 21.9276 35.9378 19.36C35.9378 16.7924 33.8563 14.7109 31.2887 14.7109C28.7211 14.7109 26.6396 16.7924 26.6396 19.36C26.6396 21.9276 28.7211 24.0091 31.2887 24.0091Z" fill="url(#paint0_radial_329_8167)"/>
<path d="M8.71158 24.0091C11.2792 24.0091 13.3607 21.9276 13.3607 19.36C13.3607 16.7924 11.2792 14.7109 8.71158 14.7109C6.14396 14.7109 4.0625 16.7924 4.0625 19.36C4.0625 21.9276 6.14396 24.0091 8.71158 24.0091Z" fill="url(#paint1_radial_329_8167)"/>
<path d="M20.015 33.2911C27.34 33.2911 33.2781 28.8358 33.2781 23.3399C33.2781 17.844 27.34 13.3887 20.015 13.3887C12.69 13.3887 6.75195 17.844 6.75195 23.3399C6.75195 28.8358 12.69 33.2911 20.015 33.2911Z" fill="url(#paint2_radial_329_8167)"/>
<path d="M16.0817 22.3757C16.0039 24.0549 14.8844 24.6769 13.5783 24.6769C12.2722 24.6769 11.2771 23.8062 11.3548 22.1269C11.4326 20.4476 12.5521 19.3281 13.8582 19.3281C15.1643 19.3281 16.1594 20.6964 16.0817 22.3757ZM28.6451 22.1269C28.7228 23.8062 27.7277 24.6769 26.4216 24.6769C25.1155 24.6769 23.996 24.0705 23.9182 22.3757C23.8405 20.6964 24.8356 19.3281 26.1417 19.3281C27.4478 19.3281 28.5673 20.4321 28.6451 22.1269Z" fill="#842123"/>
<path d="M23.9341 22.5307C24.0119 24.1011 25.0537 24.6764 26.2665 24.6764C27.4793 24.6764 28.4122 23.8212 28.35 22.2352C28.2722 20.6648 27.2305 19.623 26.0177 19.623C24.8049 19.623 23.8564 20.9447 23.9341 22.5307Z" fill="url(#paint3_radial_329_8167)"/>
<path d="M16.0816 22.5307C16.0038 24.1011 14.9621 24.6764 13.7493 24.6764C12.5365 24.6764 11.6035 23.8212 11.6813 22.2352C11.759 20.6648 12.8008 19.623 14.0136 19.623C15.2264 19.623 16.1593 20.9447 16.0816 22.5307Z" fill="url(#paint4_radial_329_8167)"/>
<path d="M20.0156 25.7969C18.3674 25.7969 16.797 25.8746 15.3354 26.0146C15.0866 26.0457 14.9311 26.2944 15.0244 26.5121C15.833 28.4246 17.761 29.7774 20.0156 29.7774C22.2702 29.7774 24.1827 28.4402 25.0067 26.5121C25.1 26.2789 24.9445 26.0301 24.6958 26.0146C23.2342 25.8746 21.6638 25.7969 20.0156 25.7969Z" fill="#BBCFDA"/>
<path d="M20.0157 26.1699C18.3675 26.1699 16.7971 26.2477 15.351 26.4032C15.1023 26.4343 14.9468 26.683 15.0401 26.9163C15.8486 28.8599 17.7766 30.2281 20.0157 30.2281C22.2547 30.2281 24.1827 28.8599 24.9913 26.9163C25.0846 26.683 24.9291 26.4343 24.6803 26.4032C23.2187 26.2477 21.6483 26.1699 20.0157 26.1699Z" fill="white"/>
<path d="M20.0151 25.9688C18.398 25.9688 16.8587 26.0465 15.4282 26.1864C15.1794 26.2175 15.0239 26.4663 15.1172 26.684C15.9257 28.5965 17.8071 29.9492 20.0151 29.9492C22.223 29.9492 24.1044 28.612 24.9129 26.684C25.0062 26.4508 24.8507 26.202 24.6019 26.1864C23.1715 26.062 21.6321 25.9688 20.0151 25.9688Z" fill="url(#paint5_radial_329_8167)"/>
<path d="M27.2768 12.0517C29.0973 12.0517 30.5731 10.5758 30.5731 8.75532C30.5731 6.9348 29.0973 5.45898 27.2768 5.45898C25.4563 5.45898 23.9805 6.9348 23.9805 8.75532C23.9805 10.5758 25.4563 12.0517 27.2768 12.0517Z" fill="url(#paint6_radial_329_8167)"/>
<path d="M19.9691 13.8096C19.5804 13.8096 19.2539 13.6386 19.2539 13.3898C19.2539 10.4355 21.6484 8.04102 24.6027 8.04102C24.9914 8.04102 25.3179 8.36754 25.3179 8.75626C25.3179 9.14498 24.9914 9.4715 24.6027 9.4715C22.4414 9.4715 20.6844 11.2285 20.6844 13.3898C20.6844 13.6541 20.3579 13.8096 19.9691 13.8096Z" fill="url(#paint7_radial_329_8167)"/>
<path d="M15.2261 23.309C15.2261 23.9154 14.573 24.1953 13.78 24.1953C12.987 24.1953 12.334 23.9154 12.334 23.309C12.334 22.7026 12.987 22.2051 13.78 22.2051C14.573 22.2051 15.2261 22.6871 15.2261 23.309ZM27.6961 23.309C27.6961 23.9154 27.0431 24.1953 26.2501 24.1953C25.4571 24.1953 24.8041 23.9154 24.8041 23.309C24.8041 22.7026 25.4571 22.2051 26.2501 22.2051C27.0431 22.2051 27.6961 22.6871 27.6961 23.309Z" fill="#FF6101"/>
<path d="M14.7758 21.6449C15.0592 21.6449 15.2889 21.3943 15.2889 21.0851C15.2889 20.776 15.0592 20.5254 14.7758 20.5254C14.4924 20.5254 14.2627 20.776 14.2627 21.0851C14.2627 21.3943 14.4924 21.6449 14.7758 21.6449Z" fill="#FFC49C"/>
<path d="M27.0434 21.6449C27.3268 21.6449 27.5565 21.3943 27.5565 21.0851C27.5565 20.776 27.3268 20.5254 27.0434 20.5254C26.76 20.5254 26.5303 20.776 26.5303 21.0851C26.5303 21.3943 26.76 21.6449 27.0434 21.6449Z" fill="#FFC49C"/>
</g>
<defs>
<radialGradient id="paint0_radial_329_8167" cx="0" cy="0" r="1" gradientUnits="userSpaceOnUse" gradientTransform="translate(31.3528 16.85) scale(9.31393 8.12492)">
<stop stop-color="#FEFFFF"/>
<stop offset="0.4" stop-color="#FEFFFF"/>
<stop offset="0.51" stop-color="#F9FCFC"/>
<stop offset="0.62" stop-color="#EDF3F5"/>
<stop offset="0.7" stop-color="#DEE9EC"/>
<stop offset="0.72" stop-color="#D8E4E8"/>
<stop offset="0.76" stop-color="#CCD8DF"/>
<stop offset="0.8" stop-color="#C8D5DD"/>
<stop offset="0.83" stop-color="#CCD6DE"/>
<stop offset="0.85" stop-color="#D8DBE2"/>
<stop offset="0.88" stop-color="#EDE3E9"/>
<stop offset="0.9" stop-color="#FFEBEF"/>
<stop offset="1" stop-color="#FFEBEF"/>
</radialGradient>
<radialGradient id="paint1_radial_329_8167" cx="0" cy="0" r="1" gradientUnits="userSpaceOnUse" gradientTransform="translate(8.78808 16.85) scale(9.31393 8.12492)">
<stop stop-color="#FEFFFF"/>
<stop offset="0.4" stop-color="#FEFFFF"/>
<stop offset="0.51" stop-color="#F9FCFC"/>
<stop offset="0.62" stop-color="#EDF3F5"/>
<stop offset="0.7" stop-color="#DEE9EC"/>
<stop offset="0.72" stop-color="#D8E4E8"/>
<stop offset="0.76" stop-color="#CCD8DF"/>
<stop offset="0.8" stop-color="#C8D5DD"/>
<stop offset="0.83" stop-color="#CCD6DE"/>
<stop offset="0.85" stop-color="#D8DBE2"/>
<stop offset="0.88" stop-color="#EDE3E9"/>
<stop offset="0.9" stop-color="#FFEBEF"/>
<stop offset="1" stop-color="#FFEBEF"/>
</radialGradient>
<radialGradient id="paint2_radial_329_8167" cx="0" cy="0" r="1" gradientUnits="userSpaceOnUse" gradientTransform="translate(20.3644 15.5462) scale(28.0946 19.7259)">
<stop stop-color="#FEFFFF"/>
<stop offset="0.4" stop-color="#FEFFFF"/>
<stop offset="0.51" stop-color="#F9FCFC"/>
<stop offset="0.62" stop-color="#EDF3F5"/>
<stop offset="0.7" stop-color="#DEE9EC"/>
<stop offset="0.72" stop-color="#D8E4E8"/>
<stop offset="0.76" stop-color="#CCD8DF"/>
<stop offset="0.8" stop-color="#C8D5DD"/>
<stop offset="0.83" stop-color="#CCD6DE"/>
<stop offset="0.85" stop-color="#D8DBE2"/>
<stop offset="0.88" stop-color="#EDE3E9"/>
<stop offset="0.9" stop-color="#FFEBEF"/>
<stop offset="1" stop-color="#FFEBEF"/>
</radialGradient>
<radialGradient id="paint3_radial_329_8167" cx="0" cy="0" r="1" gradientUnits="userSpaceOnUse" gradientTransform="translate(25.7969 23.599) rotate(180) scale(2.3473 3.44604)">
<stop stop-color="#FF6600"/>
<stop offset="0.5" stop-color="#FF4500"/>
<stop offset="0.7" stop-color="#FC4301"/>
<stop offset="0.82" stop-color="#F43F07"/>
<stop offset="0.92" stop-color="#E53812"/>
<stop offset="1" stop-color="#D4301F"/>
</radialGradient>
<radialGradient id="paint4_radial_329_8167" cx="0" cy="0" r="1" gradientUnits="userSpaceOnUse" gradientTransform="translate(14.1209 23.599) scale(2.3473 3.44604)">
<stop stop-color="#FF6600"/>
<stop offset="0.5" stop-color="#FF4500"/>
<stop offset="0.7" stop-color="#FC4301"/>
<stop offset="0.82" stop-color="#F43F07"/>
<stop offset="0.92" stop-color="#E53812"/>
<stop offset="1" stop-color="#D4301F"/>
</radialGradient>
<radialGradient id="paint5_radial_329_8167" cx="0" cy="0" r="1" gradientUnits="userSpaceOnUse" gradientTransform="translate(20.0569 30.4325) scale(8.27694 5.45926)">
<stop stop-color="#172E35"/>
<stop offset="0.29" stop-color="#0E1C21"/>
<stop offset="0.73" stop-color="#030708"/>
<stop offset="1"/>
</radialGradient>
<radialGradient id="paint6_radial_329_8167" cx="0" cy="0" r="1" gradientUnits="userSpaceOnUse" gradientTransform="translate(27.3564 5.42882) scale(7.26553)">
<stop stop-color="#FEFFFF"/>
<stop offset="0.4" stop-color="#FEFFFF"/>
<stop offset="0.51" stop-color="#F9FCFC"/>
<stop offset="0.62" stop-color="#EDF3F5"/>
<stop offset="0.7" stop-color="#DEE9EC"/>
<stop offset="0.72" stop-color="#D8E4E8"/>
<stop offset="0.76" stop-color="#CCD8DF"/>
<stop offset="0.8" stop-color="#C8D5DD"/>
<stop offset="0.83" stop-color="#CCD6DE"/>
<stop offset="0.85" stop-color="#D8DBE2"/>
<stop offset="0.88" stop-color="#EDE3E9"/>
<stop offset="0.9" stop-color="#FFEBEF"/>
<stop offset="1" stop-color="#FFEBEF"/>
</radialGradient>
<radialGradient id="paint7_radial_329_8167" cx="0" cy="0" r="1" gradientUnits="userSpaceOnUse" gradientTransform="translate(24.329 13.3503) scale(5.95522)">
<stop stop-color="#7A9299"/>
<stop offset="0.48" stop-color="#7A9299"/>
<stop offset="0.67" stop-color="#172E35"/>
<stop offset="0.75"/>
<stop offset="0.82" stop-color="#172E35"/>
<stop offset="1" stop-color="#172E35"/>
</radialGradient>
<clipPath id="clip0_329_8167">
<rect width="40" height="40" fill="white"/>
</clipPath>
</defs>
</svg>
