<svg width="40" height="40" viewBox="0 0 40 40" fill="none" xmlns="http://www.w3.org/2000/svg">
<g clip-path="url(#clip0_329_8184)">
<path d="M8.43392 25.2866C8.43392 27.6127 6.55566 29.4893 4.2347 29.4893C1.91374 29.4893 0.0322266 27.6095 0.0322266 25.2866C0.0322266 22.9605 1.91048 21.084 4.23145 21.084H8.43066V25.2866H8.43392ZM10.5335 25.2866C10.5335 22.9605 12.4118 21.084 14.7327 21.084C17.0537 21.084 18.932 22.9638 18.932 25.2866V35.7965C18.932 38.1226 17.0537 39.9991 14.7327 39.9991C12.4118 39.9991 10.5335 38.1193 10.5335 35.7965V25.2866Z" fill="#E01E5A"/>
<path d="M14.7331 8.40918C12.4089 8.40918 10.5339 6.5294 10.5339 4.20655C10.5339 1.88043 12.4121 0.00390625 14.7331 0.00390625C17.054 0.00390625 18.9323 1.88369 18.9323 4.20655V8.40918H14.7331ZM14.7331 10.5431C17.0573 10.5431 18.9323 12.4229 18.9323 14.7457C18.9323 17.0718 17.054 18.9484 14.7331 18.9484H4.19922C1.87826 18.9516 0 17.0718 0 14.7457C0 12.4196 1.87826 10.5431 4.19922 10.5431H14.7331Z" fill="#36C5F0"/>
<path d="M31.5654 14.7451C31.5654 12.419 33.4437 10.5424 35.7646 10.5424C38.0889 10.5424 39.9639 12.4222 39.9639 14.7451C39.9639 17.0712 38.0856 18.9477 35.7646 18.9477H31.5654V14.7451ZM29.4658 14.7451C29.4658 17.0712 27.5876 18.9477 25.2666 18.9477C22.9424 18.9477 21.0674 17.0679 21.0674 14.7451V4.20264C21.0674 1.87653 22.9456 0 25.2666 0C27.5908 0 29.4658 1.87978 29.4658 4.20264V14.7451Z" fill="#2EB67D"/>
<path d="M25.2666 31.5906C27.5908 31.5906 29.4658 33.4704 29.4658 35.7932C29.4658 38.1193 27.5876 39.9959 25.2666 39.9959C22.9424 39.9959 21.0674 38.1161 21.0674 35.7932V31.5906H25.2666ZM25.2666 29.4893C22.9424 29.4893 21.0674 27.6095 21.0674 25.2866C21.0674 22.9605 22.9456 21.084 25.2666 21.084H35.8005C38.1247 21.084 39.9997 22.9638 39.9997 25.2866C39.9997 27.6127 38.1214 29.4893 35.8005 29.4893H25.2666Z" fill="#ECB22E"/>
</g>
<defs>
<clipPath id="clip0_329_8184">
<rect width="40" height="40" fill="white"/>
</clipPath>
</defs>
</svg>
