<svg width="40" height="40" viewBox="0 0 40 40" fill="none" xmlns="http://www.w3.org/2000/svg">
<g clip-path="url(#clip0_329_8190)">
<path d="M20 40C31.0457 40 40 31.0457 40 20C40 8.9543 31.0457 0 20 0C8.9543 0 0 8.9543 0 20C0 31.0457 8.9543 40 20 40Z" fill="url(#paint0_linear_329_8190)"/>
<path fill-rule="evenodd" clip-rule="evenodd" d="M9.05331 19.7884C14.8838 17.2477 18.7713 15.5735 20.7166 14.7642C26.2713 12.454 27.4252 12.0524 28.1775 12.0392C28.3432 12.0368 28.7127 12.0774 28.9525 12.272C29.1549 12.436 29.2103 12.6579 29.2369 12.8134C29.2635 12.9696 29.2971 13.3235 29.2705 13.6009C28.9697 16.7634 27.6674 24.4376 27.0049 27.9798C26.7244 29.479 26.1721 29.9813 25.6377 30.0306C24.4768 30.1376 23.5947 29.2626 22.4697 28.5251C20.7096 27.372 19.715 26.6532 18.0064 25.5274C16.0314 24.2259 17.3119 23.511 18.4369 22.3423C18.7314 22.036 23.8486 17.3813 23.9478 16.9595C23.9603 16.9063 23.9721 16.7095 23.8549 16.6056C23.7377 16.5017 23.565 16.5376 23.4408 16.5657C23.2643 16.6056 20.4525 18.4642 15.0049 22.1415C14.2064 22.6899 13.483 22.9563 12.8353 22.9431C12.1213 22.9274 10.7478 22.5392 9.72675 22.2071C8.47441 21.8001 7.47909 21.5845 7.56581 20.8931C7.61034 20.5329 8.10644 20.1649 9.05331 19.7884Z" fill="white"/>
</g>
<defs>
<linearGradient id="paint0_linear_329_8190" x1="20" y1="0.3" x2="20" y2="40" gradientUnits="userSpaceOnUse">
<stop stop-color="#2AABEE"/>
<stop offset="1" stop-color="#229ED9"/>
</linearGradient>
<clipPath id="clip0_329_8190">
<rect width="40" height="40" fill="white"/>
</clipPath>
</defs>
</svg>
