<svg width="40" height="40" viewBox="0 0 40 40" fill="none" xmlns="http://www.w3.org/2000/svg">
<g clip-path="url(#clip0_329_8193)">
<path fill-rule="evenodd" clip-rule="evenodd" d="M40 29.8492C40 30.068 39.993 30.543 39.9797 30.9102C39.9477 31.8078 39.8766 32.9664 39.7688 33.4938C39.6249 34.2444 39.3813 34.9725 39.0445 35.6586C38.3038 37.1213 37.115 38.309 35.6516 39.0484C34.9614 39.3862 34.2291 39.63 33.4742 39.7734C32.9516 39.8789 31.8016 39.9484 30.9102 39.9805C30.5422 39.9938 30.0672 40 29.8492 40H10.1539C9.93516 40 9.46016 39.993 9.09297 39.9797C8.19531 39.9477 7.03672 39.8766 6.50937 39.7695C5.75855 39.625 5.03029 39.3811 4.34375 39.0445C2.87985 38.3031 1.69128 37.1132 0.951563 35.6484C0.613824 34.9583 0.369992 34.226 0.226563 33.4711C0.121094 32.9484 0.0515625 31.7969 0.0195312 30.907C0.00625 30.5398 0 30.0641 0 29.8438V10.1484C0 9.92969 0.00703125 9.45469 0.0195312 9.0875C0.0554688 8.19219 0.126563 7.03125 0.234375 6.50625C0.378705 5.75546 0.622246 5.0272 0.958594 4.34063C1.70012 2.87866 2.88875 1.69141 4.35156 0.951563C5.04174 0.613824 5.77403 0.369992 6.52891 0.226563C7.05156 0.121094 8.20312 0.0515625 9.09297 0.0195312C9.46016 0.00625 9.93594 0 10.1562 0H29.8516C30.0703 0 30.5453 0.00703125 30.9125 0.0195312C31.8078 0.0554688 32.9688 0.126563 33.4938 0.234375C34.2445 0.378705 34.9728 0.622246 35.6594 0.958594C37.1213 1.70012 38.3086 2.88875 39.0484 4.35156C39.3862 5.04174 39.63 5.77403 39.7734 6.52891C39.8789 7.05156 39.9484 8.20156 39.9805 9.09297C39.9938 9.46016 40 9.93594 40 10.1539V29.8492Z" fill="url(#paint0_linear_329_8193)"/>
<path fill-rule="evenodd" clip-rule="evenodd" d="M29.6531 10.2864C28.3962 9.02023 26.9002 8.01641 25.252 7.33322C23.6039 6.65004 21.8365 6.30111 20.0523 6.30671C12.5781 6.30671 6.48828 12.3934 6.48828 19.8762C6.48615 22.2571 7.1113 24.5966 8.30078 26.659L6.375 33.6903L13.5687 31.802C15.5581 32.8864 17.7874 33.4551 20.0531 33.4559H20.0586C27.5375 33.4559 33.6281 27.3692 33.6281 19.8864C33.6322 18.1032 33.2828 16.3368 32.6001 14.6895C31.9174 13.0421 30.915 11.5464 29.6508 10.2887L29.6531 10.2864ZM20.0562 31.1716C18.0352 31.1719 16.0512 30.6284 14.3125 29.5981L13.8992 29.352L9.63047 30.4684L10.7703 26.3067L10.5031 25.8794C9.36982 24.0834 8.77073 22.0022 8.77578 19.8786C8.77578 13.6567 13.8359 8.59343 20.0625 8.59343C21.5441 8.59363 23.0112 8.88582 24.3799 9.4533C25.7486 10.0208 26.992 10.8524 28.0391 11.9007C29.0862 12.9489 29.9165 14.1933 30.4824 15.5626C31.0484 16.9319 31.3389 18.3993 31.3375 19.8809C31.332 26.1051 26.2727 31.1669 20.0555 31.1669L20.0562 31.1716ZM26.2398 22.7184C25.9023 22.5465 24.2336 21.7286 23.9234 21.6153C23.6133 21.502 23.3883 21.4442 23.1578 21.7872C22.9273 22.1301 22.2812 22.8895 22.0828 23.1153C21.8844 23.3411 21.6875 23.3723 21.3508 23.2005C21.0141 23.0286 19.9172 22.6716 18.6227 21.5161C17.6164 20.6176 16.9344 19.5051 16.7359 19.1723C16.5375 18.8395 16.7133 18.6481 16.8859 18.4825C17.0422 18.3317 17.2234 18.0872 17.3945 17.8887C17.5656 17.6903 17.6195 17.5512 17.732 17.3216C17.8445 17.0919 17.7898 16.8981 17.7047 16.7278C17.6195 16.5575 16.9391 14.888 16.6625 14.2083C16.3898 13.5434 16.1063 13.6364 15.8977 13.6247C15.6891 13.613 15.4742 13.6145 15.25 13.6145C15.0784 13.6191 14.9096 13.659 14.754 13.7317C14.5985 13.8045 14.4597 13.9084 14.3461 14.0372C14.0336 14.3747 13.1586 15.1981 13.1586 16.8669C13.1586 18.5356 14.3727 20.1481 14.543 20.3755C14.7133 20.6028 16.9344 24.0286 20.3352 25.4958C21.143 25.8426 21.7742 26.0512 22.2664 26.213C22.9581 26.4214 23.6885 26.4671 24.4008 26.3465C25.0531 26.2505 26.407 25.527 26.6906 24.7356C26.9742 23.9442 26.9742 23.2645 26.8898 23.1247C26.8055 22.9848 26.5844 22.8903 26.2422 22.7169L26.2398 22.7184Z" fill="white"/>
</g>
<defs>
<linearGradient id="paint0_linear_329_8193" x1="19.9135" y1="0.0331562" x2="19.9135" y2="39.8598" gradientUnits="userSpaceOnUse">
<stop stop-color="#61FD7D"/>
<stop offset="1" stop-color="#2BB826"/>
</linearGradient>
<clipPath id="clip0_329_8193">
<rect width="40" height="40" fill="white"/>
</clipPath>
</defs>
</svg>
