<svg width="40" height="40" viewBox="0 0 40 40" fill="none" xmlns="http://www.w3.org/2000/svg">
<g clip-path="url(#clip0_329_8196)">
<path d="M30.968 0H9.03203C4.04378 0 0 4.0625 0 9.07386V30.9261C0 35.9375 4.04378 40 9.03203 40H30.968C35.9562 40 40 35.9375 40 30.9261V9.07386C40 4.0625 35.9562 0 30.968 0Z" fill="black"/>
<path d="M25.2926 11.6426H28.1145L21.9496 18.7221L29.202 28.3548H23.523L19.0754 22.513L13.9855 28.3548H11.1621L17.7559 20.7831L10.7988 11.6426H16.6215L20.6418 16.9828L25.2926 11.6426ZM24.302 26.6579H25.866L15.7723 13.2508H14.0941L24.302 26.6579Z" fill="white"/>
</g>
<defs>
<clipPath id="clip0_329_8196">
<rect width="40" height="40" fill="white"/>
</clipPath>
</defs>
</svg>
